<svg height="512" viewBox="0 0 59 45" width="512" xmlns="http://www.w3.org/2000/svg"><g id="008---Cap" fill="none" transform="translate(-1)"><path id="Shape" d="m48 33.9c-.34.49-6.3 9-17 10-11 1-8.5-4.44-19.5-6-5.3-.75-8.11.15-9.13.81-.38531697.2514683-.89878985.1677818-1.18431788-.1930218-.28552802-.3608036-.24897116-.8797655.08431788-1.1969782 2-1.88 6.87-4.95 11.73-8.42l21-7.9z" fill="#464f5d"/><path id="Shape" d="m42 4.63c0-.48.1-.86.1-1.07 0-3.2-5.64-3.59-6-.31l-.09.84z" fill="#2c3e50"/><path id="Shape" d="m59.16 26.11c0 9.82-1.91 8.48-7.46 8-7-.61-6.71.5-25.7-4.25-4-1-9.63-1.68-13-1 0 0 .76-9.45 5.38-16.06 6.23-8.92 20.62-8.92 20.62-8.92 3.8739121.66537162 7.5721297 2.11131688 10.87 4.25 6.31 4.11 9.29 10.43 9.29 17.98z" fill="#33907c"/><path id="Shape" d="m39 3.88c-14.07 2.5-16.56 21.12-16.94 25.21-2.9891478-.5558807-6.0483069-.6267884-9.06-.21 0 0 .76-9.45 5.38-16.06 6.23-8.94 20.62-8.94 20.62-8.94z" fill="#26b99a"/><path id="Shape" d="m43 33.51c-8.17-1-16-3.69-20.95-4.42.39-4.09 2.88-22.71 16.95-25.21 11 5.69 5 26.37 4 29.63z" fill="#14a085"/></g></svg>