<svg width="25" height="25" viewBox="0 0 25 25" fill="none" xmlns="http://www.w3.org/2000/svg">
<g id="Icon/Outline/plus">
<path id="Mask" fill-rule="evenodd" clip-rule="evenodd" d="M16.8505 15.7657L13.8821 12.7807L16.8671 9.81233C17.1422 9.53874 17.143 9.09472 16.8699 8.8201C16.5968 8.54548 16.1528 8.54374 15.8777 8.81732L12.8927 11.7857L9.92432 8.80066C9.65124 8.52604 9.20722 8.5243 8.9321 8.79788C8.65698 9.07147 8.65623 9.51549 8.92932 9.79011L11.8977 12.7751L8.91266 15.7435C8.63754 16.017 8.6368 16.4611 8.90988 16.7357C9.18297 17.0103 9.62699 17.0121 9.90211 16.7385L12.8871 13.7701L15.8555 16.7551C16.1286 17.0298 16.5726 17.0315 16.8477 16.7579C17.1228 16.4843 17.1236 16.0403 16.8505 15.7657Z" fill="black"/>
<mask id="mask0" mask-type="alpha" maskUnits="userSpaceOnUse" x="8" y="8" width="10" height="9">
<path id="Mask_2" fill-rule="evenodd" clip-rule="evenodd" d="M16.8505 15.7657L13.8821 12.7807L16.8671 9.81233C17.1422 9.53874 17.143 9.09472 16.8699 8.8201C16.5968 8.54548 16.1528 8.54374 15.8777 8.81732L12.8927 11.7857L9.92432 8.80066C9.65124 8.52604 9.20722 8.5243 8.9321 8.79788C8.65698 9.07147 8.65623 9.51549 8.92932 9.79011L11.8977 12.7751L8.91266 15.7435C8.63754 16.017 8.6368 16.4611 8.90988 16.7357C9.18297 17.0103 9.62699 17.0121 9.90211 16.7385L12.8871 13.7701L15.8555 16.7551C16.1286 17.0298 16.5726 17.0315 16.8477 16.7579C17.1228 16.4843 17.1236 16.0403 16.8505 15.7657Z" fill="white"/>
</mask>
<g mask="url(#mask0)">
<g id="&#240;&#159;&#142;&#168; Color">
<rect id="Base" x="12.9238" y="0.871338" width="16.8387" height="16.8387" transform="rotate(45.1603 12.9238 0.871338)" fill="#C6C6C6"/>
</g>
</g>
</g>
</svg>
