<svg width="14" height="14" viewBox="0 0 14 14" fill="none" xmlns="http://www.w3.org/2000/svg">
<path fill-rule="evenodd" clip-rule="evenodd" d="M7.58268 11.0835L7.58268 7.5835L11.0827 7.5835C11.4053 7.5835 11.666 7.32216 11.666 7.00016C11.666 6.67816 11.4053 6.41683 11.0827 6.41683L7.58268 6.41683L7.58268 2.91683C7.58268 2.59483 7.32193 2.3335 6.99935 2.3335C6.67677 2.3335 6.41602 2.59483 6.41602 2.91683L6.41602 6.41683L2.91602 6.41683C2.59343 6.41683 2.33268 6.67816 2.33268 7.00016C2.33268 7.32216 2.59343 7.5835 2.91602 7.5835L6.41602 7.5835L6.41602 11.0835C6.41602 11.4055 6.67677 11.6668 6.99935 11.6668C7.32193 11.6668 7.58268 11.4055 7.58268 11.0835Z" fill="black"/>
<mask id="mask0" mask-type="alpha" maskUnits="userSpaceOnUse" x="2" y="2" width="10" height="10">
<path fill-rule="evenodd" clip-rule="evenodd" d="M7.58268 11.0835L7.58268 7.5835L11.0827 7.5835C11.4053 7.5835 11.666 7.32216 11.666 7.00016C11.666 6.67816 11.4053 6.41683 11.0827 6.41683L7.58268 6.41683L7.58268 2.91683C7.58268 2.59483 7.32193 2.3335 6.99935 2.3335C6.67677 2.3335 6.41602 2.59483 6.41602 2.91683L6.41602 6.41683L2.91602 6.41683C2.59343 6.41683 2.33268 6.67816 2.33268 7.00016C2.33268 7.32216 2.59343 7.5835 2.91602 7.5835L6.41602 7.5835L6.41602 11.0835C6.41602 11.4055 6.67677 11.6668 6.99935 11.6668C7.32193 11.6668 7.58268 11.4055 7.58268 11.0835Z" fill="white"/>
</mask>
<g mask="url(#mask0)">
<rect x="14" width="14" height="14" transform="rotate(90 14 0)" fill="black"/>
</g>
</svg>
