<svg width="32" height="32" viewBox="0 0 32 32" fill="none" xmlns="http://www.w3.org/2000/svg">
<circle cx="16" cy="16" r="15" fill="white" stroke="#00AC4E" stroke-width="2"/>
<path d="M19.8402 15.04H16.9602V12.16C16.9602 11.6299 16.5304 11.2 16.0002 11.2C15.47 11.2 15.0402 11.6299 15.0402 12.16V15.04H12.1602C11.63 15.04 11.2002 15.4699 11.2002 16C11.2002 16.5302 11.63 16.96 12.1602 16.96H15.0402V19.84C15.0402 20.3702 15.47 20.8 16.0002 20.8C16.5304 20.8 16.9602 20.3702 16.9602 19.84V16.96H19.8402C20.3704 16.96 20.8002 16.5302 20.8002 16C20.8002 15.4699 20.3704 15.04 19.8402 15.04Z" fill="#00AC4E"/>
</svg>
