<svg width="38" height="39" viewBox="0 0 38 39" fill="none" xmlns="http://www.w3.org/2000/svg">
<g clip-path="url(#clip0)">
<path d="M30.8878 27.0192C29.0423 27.0192 27.541 28.5225 27.541 30.3709C27.541 32.22 29.0423 33.7243 30.8878 33.7243C32.734 33.7243 34.2349 32.22 34.2349 30.3709C34.2349 28.5225 32.734 27.0192 30.8878 27.0192Z" fill="#00AC4E"/>
<path d="M8.32127 27.0192C6.4749 27.0192 4.97363 28.5225 4.97363 30.3709C4.97363 32.22 6.4749 33.7243 8.32127 33.7243C10.1666 33.7243 11.6679 32.22 11.6679 30.3709C11.668 28.5225 10.1668 27.0192 8.32127 27.0192Z" fill="#00AC4E"/>
<path d="M32.7767 12.938C32.6 12.4058 32.1021 12.0463 31.541 12.0463H29.959V17.611H34.3246L32.7767 12.938Z" fill="#00AC4E"/>
<path d="M36.9702 19.6942H29.959V25.0177C30.261 24.9659 30.5716 24.9368 30.8881 24.9368C33.6856 24.9368 35.9954 27.0661 36.2862 29.7902H36.5312C37.2495 29.7902 37.8323 29.2074 37.8323 28.4883V20.9181C37.8323 20.3532 37.4722 19.8748 36.9702 19.6942Z" fill="#00AC4E"/>
<path d="M27.8264 5.89104C27.8264 5.17189 27.2436 4.58911 26.5252 4.58911H1.42311C0.704853 4.58911 0.12207 5.17177 0.12207 5.89104V28.4879C0.12207 29.2071 0.704853 29.7898 1.42311 29.7898H2.92133C3.21222 27.0657 5.52189 24.9365 8.31988 24.9365C11.1169 24.9365 13.4262 27.0657 13.717 29.7898H23.9919H25.4901C25.6654 28.1497 26.572 26.727 27.8766 25.8528L27.8264 5.89104Z" fill="#00AC4E"/>
</g>
<defs>
<clipPath id="clip0">
<rect width="37.7095" height="37.7095" fill="white" transform="translate(0.12207 0.301758)"/>
</clipPath>
</defs>
</svg>
