<svg width="18" height="15" viewBox="0 0 18 15" fill="none" xmlns="http://www.w3.org/2000/svg">
<path fill-rule="evenodd" clip-rule="evenodd" d="M2.23835 0.58667H15.84C16.6747 0.58667 17.3513 1.2633 17.3513 2.09797V12.6771C17.3513 13.5117 16.6747 14.1884 15.84 14.1884H2.23835C1.40368 14.1884 0.727051 13.5117 0.727051 12.6771V2.09797C0.727051 1.2633 1.40368 0.58667 2.23835 0.58667ZM6.15726 7.54694C4.35685 6.64665 2.23844 7.95583 2.23844 9.96879C2.23844 11.4642 3.45075 12.6766 4.94621 12.6766H13.1326C14.6279 12.6766 15.8401 11.4643 15.8401 9.96898C15.8401 7.95622 13.722 6.64711 11.9217 7.54725L10.6451 8.18556C9.63444 8.69088 8.44486 8.69085 7.43424 8.18549L6.15726 7.54694ZM2.23844 3.21003C2.23844 3.63143 2.47652 4.01667 2.85342 4.20514L5.9984 5.77778C7.91292 6.73514 10.1665 6.73518 12.081 5.7779L15.2249 4.20597C15.602 4.01744 15.8401 3.63204 15.8401 3.21047C15.8401 2.59577 15.3418 2.09745 14.7271 2.09745H3.35102C2.73656 2.09745 2.23844 2.59557 2.23844 3.21003Z" fill="#C6C6C6"/>
</svg>
