<svg width="12" height="12" viewBox="0 0 12 12" fill="none" xmlns="http://www.w3.org/2000/svg">
<path fill-rule="evenodd" clip-rule="evenodd" d="M4.23472 4.57207C4.23472 2.46228 5.94504 0.751953 8.05484 0.751953C10.1646 0.751953 11.875 2.46228 11.875 4.57207C11.875 6.68187 10.1646 8.3922 8.05484 8.3922H6.96338V9.48366H5.87191V10.5751H4.78045V11.6666H0.960327V8.71188L4.31549 5.35672C4.26198 5.1006 4.23472 4.83801 4.23472 4.57207ZM5.87199 7.30099H8.05491C9.56191 7.30099 10.7836 6.07933 10.7836 4.57233C10.7836 3.06534 9.56191 1.84368 8.05491 1.84368C6.54792 1.84368 5.32626 3.06534 5.32626 4.57233C5.32626 4.84445 5.36592 5.11063 5.44309 5.36521L5.53794 5.67816L2.05187 9.16424V10.5754H3.68906V9.48392H4.78052V8.39246H5.87199V7.30099ZM6.9634 4.57249C6.9634 5.17528 7.45207 5.66395 8.05487 5.66395C8.65767 5.66395 9.14633 5.17528 9.14633 4.57249C9.14633 3.96969 8.65767 3.48102 8.05487 3.48102C7.45207 3.48102 6.9634 3.96969 6.9634 4.57249Z" fill="#C6C6C6"/>
</svg>
