<svg width="13" height="13" viewBox="0 0 13 13" fill="none" xmlns="http://www.w3.org/2000/svg">
<path fill-rule="evenodd" clip-rule="evenodd" d="M3.60842 1.88739C2.76015 1.88739 2.07041 2.57713 2.07041 3.4254C2.07041 7.79571 5.62617 11.3521 9.99708 11.3521C10.8448 11.3521 11.5351 10.6623 11.5351 9.81406C11.5351 9.7484 11.5309 9.68392 11.5227 9.62003L8.78974 8.993C8.73532 9.09711 8.67557 9.21009 8.62115 9.31539C8.35141 9.83003 8.1562 10.2039 7.65812 10.0034C5.70248 9.31716 4.10591 7.72 3.41085 5.7407C3.19967 5.27634 3.60191 5.06575 4.11182 4.79955C4.21534 4.74513 4.32715 4.68657 4.42948 4.63333L3.80245 1.89981C3.73679 1.89153 3.6729 1.88739 3.60842 1.88739ZM9.99708 12.5352C4.9737 12.5352 0.887329 8.44882 0.887329 3.42544C0.887329 1.9247 2.10768 0.704346 3.60842 0.704346C3.76222 0.704346 3.91425 0.71736 4.06155 0.742796C4.20529 0.765866 4.34963 0.802542 4.49041 0.851048C4.68266 0.917892 4.82759 1.07938 4.87314 1.27814L5.68296 4.8061C5.72792 5.00013 5.67172 5.20362 5.5333 5.34795C5.45285 5.43195 5.45108 5.43373 4.71757 5.81764C5.31147 7.10365 6.34372 8.13234 7.6037 8.70614C7.9882 7.97204 7.99057 7.96967 8.07457 7.88922C8.2189 7.7508 8.42358 7.69697 8.61642 7.73956L12.145 8.54938C12.3431 8.59493 12.5046 8.73927 12.5709 8.93152C12.6194 9.07112 12.6561 9.21546 12.6803 9.36393C12.7052 9.51005 12.7182 9.66148 12.7182 9.8141C12.7182 11.3148 11.4972 12.5352 9.99708 12.5352Z" fill="#C6C6C6"/>
</svg>
