<?xml version="1.0"?>
<svg xmlns="http://www.w3.org/2000/svg" id="Outline" viewBox="0 0 512 512" width="512" height="512"><path d="M440,368H421.22l-17.6-40H408a8,8,0,0,0,0-16H396.58l-7.04-16H392a8,8,0,0,0,0-16h-9.5l-7.04-16H376a8,8,0,0,0,0-16h-7.58l-7.092-16.119A8,8,0,0,0,360,216h-5.66L336,174.318V144a24.021,24.021,0,0,0-.392-4.294L445.657,29.657A8,8,0,0,0,440,16H216a8,8,0,0,0-5.657,2.343L191.951,36.736a24.009,24.009,0,0,0-32.921.921L50.343,146.343,39.808,156.878a72,72,0,0,0,0,101.824l78.059,78.058a23.843,23.843,0,0,0,16.97,7.03H160a8.009,8.009,0,0,1,8,8v25.583a23.843,23.843,0,0,0,7.03,16.97l66.509,66.51A119.215,119.215,0,0,0,326.392,496H456a40.045,40.045,0,0,0,40-40V424A56.064,56.064,0,0,0,440,368Zm0,16a40.045,40.045,0,0,1,40,40v8H383.765a87.428,87.428,0,0,1-62.226-25.774L112.253,196.94a72,72,0,0,0,0-89.88L136,83.313V88.24a103.321,103.321,0,0,0,30.46,73.53l39.77,39.77A103.321,103.321,0,0,0,279.76,232H303.9l7.04,16H288a8,8,0,0,0,0,16h29.98l7.04,16H304a8,8,0,0,0,0,16h28.06l7.04,16H320a8,8,0,0,0,0,16h26.14l14.128,32.11A40.012,40.012,0,0,0,396.881,384H440Zm-36.26-16h-6.859a24.008,24.008,0,0,1-21.968-14.334L363.62,328h22.52ZM379.1,312H356.58l-7.04-16h22.52Zm-14.08-32H342.5l-7.04-16h22.52Zm-36.6-32-7.04-16H343.9l7.04,16Zm-14.08-32-14.08-32h22.52l14.08,32ZM320,168H282.51c-.84,0-1.676-.024-2.51-.061V144a8.009,8.009,0,0,1,8-8h24a8.009,8.009,0,0,1,8,8ZM219.313,32H420.687l-93.462,93.462A23.888,23.888,0,0,0,312,120H288a24.027,24.027,0,0,0-24,24v20.874A55.773,55.773,0,0,1,242.912,151.6l-26.51-26.51A55.634,55.634,0,0,1,200,85.49V54.627a24.274,24.274,0,0,0-.205-3.108Zm-48.97,16.97A8,8,0,0,1,184,54.627V85.49A71.529,71.529,0,0,0,205.088,136.4l26.51,26.51A71.529,71.529,0,0,0,282.51,184h.27l14.08,32h-17.1a87.419,87.419,0,0,1-62.22-25.77l-39.77-39.77A87.419,87.419,0,0,1,152,88.24V67.313Zm-69.487,69.487a56.054,56.054,0,0,1,0,67.086L67.313,152ZM456,480H432v-8a8,8,0,0,0-16,0v8H368v-8a8,8,0,0,0-16,0v8H326.392A103.209,103.209,0,0,1,259.6,455.719L277.66,437.66a8,8,0,0,0-11.32-11.32L248,444.683,211.317,408,229.66,389.66a8,8,0,0,0-11.32-11.32L200,396.683,186.343,383.03A7.949,7.949,0,0,1,184,377.373V351.79a24.027,24.027,0,0,0-24-24H134.837a7.949,7.949,0,0,1-5.657-2.343L99.527,295.793,117.66,277.66a8,8,0,0,0-11.32-11.32L88.207,284.473l-36.68-36.68L69.66,229.66a8,8,0,0,0-11.32-11.32L41.733,234.947a56.034,56.034,0,0,1,9.389-66.755L56,163.313,310.226,417.539A103.318,103.318,0,0,0,383.765,448H480v8A24.027,24.027,0,0,1,456,480Z"/><path d="M24,352H96a8,8,0,0,0,0-16H24a8,8,0,0,0,0,16Z"/><path d="M192,432H24a8,8,0,0,0,0,16H192a8,8,0,0,0,0-16Z"/><path d="M24,400H144a8,8,0,0,0,0-16H24a8,8,0,0,0,0,16Z"/></svg>
