<svg width="38" height="42" viewBox="0 0 38 42" fill="none" xmlns="http://www.w3.org/2000/svg">
<path d="M37.8345 32.7507L36.6441 21.8158C36.4935 20.432 35.3301 19.3884 33.938 19.3884H33.0708V17.3983C33.0708 14.7692 30.9318 12.6303 28.3028 12.6303C25.6737 12.6303 23.5348 14.7693 23.5348 17.3983V19.3884H22.6676C21.2756 19.3884 20.1122 20.4319 19.9615 21.8158L18.771 32.7507C18.5958 34.3604 19.8588 35.7672 21.4771 35.7672H35.1286C36.7451 35.7673 38.01 34.3624 37.8345 32.7507ZM35.1286 34.4063H21.4772C20.6654 34.4063 20.0363 33.7039 20.1242 32.898L21.3146 21.9632C21.39 21.2713 21.9717 20.7494 22.6676 20.7494H23.5348V22.4669C23.5348 22.8427 23.8395 23.1474 24.2153 23.1474C24.5911 23.1474 24.8958 22.8427 24.8958 22.4669V17.3984C24.8958 15.5198 26.4242 13.9914 28.3029 13.9914C30.1815 13.9914 31.7099 15.5198 31.7099 17.3984V19.3884H27.4026C27.0268 19.3884 26.7221 19.6931 26.7221 20.0689C26.7221 20.4447 27.0268 20.7494 27.4026 20.7494H31.7099V22.4669C31.7099 22.8427 32.0146 23.1474 32.3904 23.1474C32.7662 23.1474 33.0709 22.8427 33.0709 22.4669V20.7494H33.9381C34.6342 20.7494 35.2158 21.2712 35.2911 21.9631L36.4816 32.8979C36.5695 33.705 35.9394 34.4063 35.1286 34.4063ZM30.6847 38.3192C30.3088 38.3192 30.0042 38.6239 30.0042 38.9997C30.0042 39.7501 29.3936 40.3607 28.6432 40.3607H2.95441C2.20399 40.3607 1.59342 39.7501 1.59342 38.9997V3.61384C1.59342 2.86342 2.20399 2.25285 2.95441 2.25285H22.0934V7.44164C22.0934 8.94256 23.3144 10.1636 24.8154 10.1636H30.6847C31.2896 10.1636 31.5934 9.42945 31.1658 9.00193C22.6467 0.48279 23.1982 0.962796 22.907 0.905039C22.813 0.88641 23.8968 0.891854 2.95441 0.891854C1.45349 0.891854 0.232422 2.11292 0.232422 3.61384V38.9997C0.232422 40.5006 1.45349 41.7217 2.95441 41.7217H28.6432C30.1441 41.7217 31.3652 40.5006 31.3652 38.9997C31.3652 38.6238 31.0605 38.3192 30.6847 38.3192ZM24.8154 8.80263C24.065 8.80263 23.4544 8.19205 23.4544 7.44164V3.21516L29.0418 8.80263H24.8154ZM11.0451 10.9295C11.0473 9.79956 10.1337 8.88404 9.0036 8.88404H7.63019C6.50456 8.88404 5.5887 9.79981 5.5887 10.9255V12.2937C5.5887 13.4195 6.50456 14.3352 7.63019 14.3352H9.00096C10.1245 14.3352 11.0404 13.4212 11.0425 12.2977L11.0451 10.9295ZM9.68146 12.2951C9.68078 12.6696 9.37549 12.9742 9.00096 12.9742H7.63019C7.25498 12.9742 6.94969 12.669 6.94969 12.2937V10.9255C6.94969 10.5503 7.25498 10.245 7.63019 10.245H9.0036C9.38034 10.245 9.68478 10.5501 9.6841 10.9268L9.68146 12.2951ZM11.0353 21.1366C11.0353 20.0109 10.1194 19.0951 8.99382 19.0951H7.63282C6.5072 19.0951 5.59133 20.0109 5.59133 21.1366V22.4976C5.59133 23.6233 6.5072 24.5391 7.63282 24.5391H8.99382C10.1194 24.5391 11.0353 23.6233 11.0353 22.4976V21.1366ZM9.67432 22.4976C9.67432 22.8728 9.36903 23.1781 8.99382 23.1781H7.63282C7.25762 23.1781 6.95233 22.8728 6.95233 22.4976V21.1366C6.95233 20.7614 7.25762 20.4561 7.63282 20.4561H8.99382C9.36903 20.4561 9.67432 20.7614 9.67432 21.1366V22.4976ZM8.99382 29.3026H7.63282C6.5072 29.3026 5.59133 30.2184 5.59133 31.3441V32.7051C5.59133 33.8308 6.5072 34.7466 7.63282 34.7466H8.99382C10.1194 34.7466 11.0353 33.8308 11.0353 32.7051V31.3441C11.0353 30.2184 10.1194 29.3026 8.99382 29.3026ZM9.67432 32.7051C9.67432 33.0803 9.36903 33.3856 8.99382 33.3856H7.63282C7.25762 33.3856 6.95233 33.0803 6.95233 32.7051V31.3441C6.95233 30.9689 7.25762 30.6636 7.63282 30.6636H8.99382C9.36903 30.6636 9.67432 30.9689 9.67432 31.3441V32.7051ZM19.0416 12.2902H14.3632C13.9874 12.2902 13.6827 11.9855 13.6827 11.6097C13.6827 11.2339 13.9874 10.9292 14.3632 10.9292H19.0416C19.4174 10.9292 19.7221 11.2339 19.7221 11.6097C19.7221 11.9855 19.4174 12.2902 19.0416 12.2902ZM17.0852 22.4976H14.3632C13.9874 22.4976 13.6827 22.1929 13.6827 21.8171C13.6827 21.4413 13.9874 21.1366 14.3632 21.1366H17.0852C17.461 21.1366 17.7657 21.4413 17.7657 21.8171C17.7657 22.1929 17.461 22.4976 17.0852 22.4976ZM16.0644 31.3441C16.4402 31.3441 16.7449 31.6488 16.7449 32.0246C16.7449 32.4004 16.4402 32.7051 16.0644 32.7051H14.3632C13.9874 32.7051 13.6827 32.4004 13.6827 32.0246C13.6827 31.6488 13.9874 31.3441 14.3632 31.3441H16.0644Z" fill="white"/>
</svg>
