<svg width="25" height="26" viewBox="0 0 25 26" fill="none" xmlns="http://www.w3.org/2000/svg">
<path fill-rule="evenodd" clip-rule="evenodd" d="M14.3976 7.82654C14.3976 6.69222 13.4752 5.76976 12.3408 5.76976C11.2065 5.76976 10.2841 6.69222 10.2841 7.82654C10.2841 8.96085 11.2065 9.88332 12.3408 9.88332C13.4752 9.88332 14.3976 8.96085 14.3976 7.82654ZM16.4543 7.82652C16.4543 10.0951 14.6094 11.9401 12.3407 11.9401C10.0721 11.9401 8.22718 10.0951 8.22718 7.82652C8.22718 5.55789 10.0721 3.71295 12.3407 3.71295C14.6094 3.71295 16.4543 5.55789 16.4543 7.82652ZM5.14203 21.1956C5.14203 17.226 8.37221 13.9969 12.3408 13.9969C16.3093 13.9969 19.5395 17.226 19.5395 21.1956C19.5395 21.7633 19.0798 22.224 18.5111 22.224C17.9424 22.224 17.4827 21.7633 17.4827 21.1956C17.4827 18.3604 15.176 16.0537 12.3408 16.0537C9.50549 16.0537 7.19881 18.3604 7.19881 21.1956C7.19881 21.7633 6.73912 22.224 6.17042 22.224C5.60172 22.224 5.14203 21.7633 5.14203 21.1956Z" fill="black"/>
<mask id="mask0" mask-type="alpha" maskUnits="userSpaceOnUse" x="5" y="3" width="15" height="20">
<path fill-rule="evenodd" clip-rule="evenodd" d="M14.3976 7.82654C14.3976 6.69222 13.4752 5.76976 12.3408 5.76976C11.2065 5.76976 10.2841 6.69222 10.2841 7.82654C10.2841 8.96085 11.2065 9.88332 12.3408 9.88332C13.4752 9.88332 14.3976 8.96085 14.3976 7.82654ZM16.4543 7.82652C16.4543 10.0951 14.6094 11.9401 12.3407 11.9401C10.0721 11.9401 8.22718 10.0951 8.22718 7.82652C8.22718 5.55789 10.0721 3.71295 12.3407 3.71295C14.6094 3.71295 16.4543 5.55789 16.4543 7.82652ZM5.14203 21.1956C5.14203 17.226 8.37221 13.9969 12.3408 13.9969C16.3093 13.9969 19.5395 17.226 19.5395 21.1956C19.5395 21.7633 19.0798 22.224 18.5111 22.224C17.9424 22.224 17.4827 21.7633 17.4827 21.1956C17.4827 18.3604 15.176 16.0537 12.3408 16.0537C9.50549 16.0537 7.19881 18.3604 7.19881 21.1956C7.19881 21.7633 6.73912 22.224 6.17042 22.224C5.60172 22.224 5.14203 21.7633 5.14203 21.1956Z" fill="white"/>
</mask>
<g mask="url(#mask0)">
<rect y="0.627808" width="24.6814" height="24.6814" fill="white"/>
</g>
</svg>
