<svg width="31" height="31" viewBox="0 0 31 31" fill="none" xmlns="http://www.w3.org/2000/svg">
<path fill-rule="evenodd" clip-rule="evenodd" d="M18.0833 9.04172C18.0833 7.61701 16.9247 6.45839 15.4999 6.45839C14.0752 6.45839 12.9166 7.61701 12.9166 9.04172C12.9166 10.4664 14.0752 11.6251 15.4999 11.6251C16.9247 11.6251 18.0833 10.4664 18.0833 9.04172ZM20.6666 9.04167C20.6666 11.8911 18.3494 14.2083 15.5 14.2083C12.6506 14.2083 10.3333 11.8911 10.3333 9.04167C10.3333 6.19225 12.6506 3.875 15.5 3.875C18.3494 3.875 20.6666 6.19225 20.6666 9.04167ZM6.45831 25.8333C6.45831 20.8474 10.5154 16.7916 15.5 16.7916C20.4845 16.7916 24.5416 20.8474 24.5416 25.8333C24.5416 26.5463 23.9643 27.1249 23.25 27.1249C22.5357 27.1249 21.9583 26.5463 21.9583 25.8333C21.9583 22.2722 19.0611 19.3749 15.5 19.3749C11.9389 19.3749 9.04165 22.2722 9.04165 25.8333C9.04165 26.5463 8.46427 27.1249 7.74998 27.1249C7.03569 27.1249 6.45831 26.5463 6.45831 25.8333Z" fill="black"/>
<mask id="mask0" mask-type="alpha" maskUnits="userSpaceOnUse" x="6" y="3" width="19" height="25">
<path fill-rule="evenodd" clip-rule="evenodd" d="M18.0833 9.04172C18.0833 7.61701 16.9247 6.45839 15.4999 6.45839C14.0752 6.45839 12.9166 7.61701 12.9166 9.04172C12.9166 10.4664 14.0752 11.6251 15.4999 11.6251C16.9247 11.6251 18.0833 10.4664 18.0833 9.04172ZM20.6666 9.04167C20.6666 11.8911 18.3494 14.2083 15.5 14.2083C12.6506 14.2083 10.3333 11.8911 10.3333 9.04167C10.3333 6.19225 12.6506 3.875 15.5 3.875C18.3494 3.875 20.6666 6.19225 20.6666 9.04167ZM6.45831 25.8333C6.45831 20.8474 10.5154 16.7916 15.5 16.7916C20.4845 16.7916 24.5416 20.8474 24.5416 25.8333C24.5416 26.5463 23.9643 27.1249 23.25 27.1249C22.5357 27.1249 21.9583 26.5463 21.9583 25.8333C21.9583 22.2722 19.0611 19.3749 15.5 19.3749C11.9389 19.3749 9.04165 22.2722 9.04165 25.8333C9.04165 26.5463 8.46427 27.1249 7.74998 27.1249C7.03569 27.1249 6.45831 26.5463 6.45831 25.8333Z" fill="white"/>
</mask>
<g mask="url(#mask0)">
<rect width="31" height="31" fill="#00AC4E"/>
</g>
</svg>
