<svg width="42" height="38" viewBox="0 0 42 38" fill="none" xmlns="http://www.w3.org/2000/svg">
<path d="M38.63 0.854736H3.24352C1.74257 0.854736 0.521484 2.07583 0.521484 3.57677V28.0751C0.521484 29.5761 1.74257 30.7972 3.24352 30.7972H17.8745V33.4341C17.8745 33.8099 18.1792 34.1146 18.555 34.1146C18.9308 34.1146 19.2355 33.8099 19.2355 33.4341V30.9673H22.638V33.4341C22.638 33.8099 22.9427 34.1146 23.3186 34.1146C23.6944 34.1146 23.9991 33.8099 23.9991 33.4341V30.7972H38.63C40.131 30.7972 41.3521 29.5761 41.3521 28.0751V3.57677C41.3521 2.07591 40.131 0.854736 38.63 0.854736ZM39.991 28.0751C39.991 28.8255 39.3804 29.4361 38.63 29.4361H3.24352C2.49309 29.4361 1.8825 28.8255 1.8825 28.0751V3.57677C1.8825 2.82634 2.49309 2.21576 3.24352 2.21576H38.63C39.3804 2.21576 39.991 2.82634 39.991 3.57677V28.0751ZM31.1137 37.2941C31.0023 37.6523 30.6214 37.8534 30.2617 37.7417C24.542 35.9621 17.2948 35.9738 11.6118 37.7417C11.2529 37.8532 10.8715 37.653 10.7598 37.2941C10.6481 36.9351 10.8486 36.5538 11.2074 36.4421C17.1553 34.5917 24.6848 34.5812 30.6661 36.4421C31.025 36.5538 31.2253 36.9352 31.1137 37.2941ZM28.0317 13.5516C27.9118 12.4513 26.9869 11.6217 25.8802 11.6217H25.0367V10.0459C25.0367 7.76633 23.1821 5.91177 20.9026 5.91177C18.623 5.91177 16.7686 7.76625 16.7686 10.0458V11.6216H15.9252C14.8184 11.6216 13.8935 12.4513 13.7736 13.5515L12.7154 23.2726C12.576 24.5525 13.5802 25.6711 14.8669 25.6711H26.9385C28.226 25.6711 29.2293 24.5517 29.09 23.2726L28.0317 13.5516ZM26.9385 24.3101H14.8669C14.3878 24.3101 14.0165 23.8956 14.0684 23.4199L15.1267 13.6989C15.1711 13.2905 15.5145 12.9826 15.9252 12.9826H16.7686V14.3281C16.7686 14.704 17.0733 15.0087 17.4492 15.0087C17.825 15.0087 18.1297 14.704 18.1297 14.3281V10.0457C18.1297 8.51659 19.3736 7.27262 20.9027 7.27262C22.4318 7.27262 23.6757 8.51659 23.6757 10.0457V11.6215H20.1421C19.7663 11.6215 19.4616 11.9262 19.4616 12.302C19.4616 12.6778 19.7663 12.9825 20.1421 12.9825H23.6757V14.3281C23.6757 14.7039 23.9804 15.0086 24.3562 15.0086C24.7321 15.0086 25.0368 14.7039 25.0368 14.3281V12.9825H25.8802C26.2909 12.9825 26.6343 13.2905 26.6787 13.6988L27.737 23.4198C27.7889 23.896 27.417 24.3101 26.9385 24.3101Z" fill="#00AC4E"/>
</svg>
