<svg width="17" height="17" viewBox="0 0 17 17" fill="none" xmlns="http://www.w3.org/2000/svg">
<path fill-rule="evenodd" clip-rule="evenodd" d="M4.67508 2.83341C3.65933 2.83341 2.83341 3.65933 2.83341 4.67508C2.83341 9.90825 7.09121 14.1667 12.3251 14.1667C13.3401 14.1667 14.1667 13.3408 14.1667 12.3251C14.1667 12.2465 14.1618 12.1692 14.1519 12.0927L10.8794 11.3419C10.8142 11.4666 10.7427 11.6019 10.6775 11.728C10.3545 12.3442 10.1207 12.7919 9.52433 12.5517C7.18258 11.7301 5.27079 9.81758 4.4385 7.4475C4.18562 6.89146 4.66729 6.63929 5.27787 6.32054C5.40183 6.25537 5.53571 6.18525 5.65825 6.1215L4.90741 2.84829C4.82879 2.83837 4.75229 2.83341 4.67508 2.83341ZM12.3251 15.5834C6.30992 15.5834 1.41675 10.6902 1.41675 4.67508C1.41675 2.87804 2.87804 1.41675 4.67508 1.41675C4.85925 1.41675 5.04129 1.43233 5.21766 1.46279C5.38979 1.49041 5.56262 1.53433 5.73121 1.59241C5.96141 1.67246 6.13496 1.86583 6.1895 2.10383L7.15921 6.32833C7.21304 6.56067 7.14575 6.80433 6.98 6.97716C6.88367 7.07775 6.88154 7.07987 6.00321 7.53958C6.71437 9.0795 7.95042 10.3113 9.45917 10.9984C9.91958 10.1193 9.92241 10.1165 10.023 10.0202C10.1958 9.85441 10.4409 9.78996 10.6718 9.84096L14.897 10.8107C15.1343 10.8652 15.3277 11.038 15.407 11.2682C15.4651 11.4354 15.509 11.6082 15.5381 11.786C15.5678 11.961 15.5834 12.1423 15.5834 12.3251C15.5834 14.1221 14.1214 15.5834 12.3251 15.5834Z" fill="black"/>
<mask id="mask0" mask-type="alpha" maskUnits="userSpaceOnUse" x="1" y="1" width="15" height="15">
<path fill-rule="evenodd" clip-rule="evenodd" d="M4.67508 2.83341C3.65933 2.83341 2.83341 3.65933 2.83341 4.67508C2.83341 9.90825 7.09121 14.1667 12.3251 14.1667C13.3401 14.1667 14.1667 13.3408 14.1667 12.3251C14.1667 12.2465 14.1618 12.1692 14.1519 12.0927L10.8794 11.3419C10.8142 11.4666 10.7427 11.6019 10.6775 11.728C10.3545 12.3442 10.1207 12.7919 9.52433 12.5517C7.18258 11.7301 5.27079 9.81758 4.4385 7.4475C4.18562 6.89146 4.66729 6.63929 5.27787 6.32054C5.40183 6.25537 5.53571 6.18525 5.65825 6.1215L4.90741 2.84829C4.82879 2.83837 4.75229 2.83341 4.67508 2.83341ZM12.3251 15.5834C6.30992 15.5834 1.41675 10.6902 1.41675 4.67508C1.41675 2.87804 2.87804 1.41675 4.67508 1.41675C4.85925 1.41675 5.04129 1.43233 5.21766 1.46279C5.38979 1.49041 5.56262 1.53433 5.73121 1.59241C5.96141 1.67246 6.13496 1.86583 6.1895 2.10383L7.15921 6.32833C7.21304 6.56067 7.14575 6.80433 6.98 6.97716C6.88367 7.07775 6.88154 7.07987 6.00321 7.53958C6.71437 9.0795 7.95042 10.3113 9.45917 10.9984C9.91958 10.1193 9.92241 10.1165 10.023 10.0202C10.1958 9.85441 10.4409 9.78996 10.6718 9.84096L14.897 10.8107C15.1343 10.8652 15.3277 11.038 15.407 11.2682C15.4651 11.4354 15.509 11.6082 15.5381 11.786C15.5678 11.961 15.5834 12.1423 15.5834 12.3251C15.5834 14.1221 14.1214 15.5834 12.3251 15.5834Z" fill="white"/>
</mask>
<g mask="url(#mask0)">
<rect width="17" height="17" fill="#00AC4E"/>
</g>
</svg>
