<svg width="38" height="44" viewBox="0 0 38 44" fill="none" xmlns="http://www.w3.org/2000/svg">
<path d="M11.0252 21.871C17.0453 21.871 21.9283 16.9881 21.9283 10.9679C21.9283 4.94774 17.0453 0.0557861 11.0252 0.0557861C5.00499 0.0557861 0.12207 4.93871 0.12207 10.9589C0.12207 16.979 5.00499 21.871 11.0252 21.871ZM7.2163 15.2732C7.31558 14.9122 7.41487 14.5601 7.52318 14.1991C7.64954 13.7839 7.76687 13.7388 8.14595 13.9374C8.7958 14.2713 9.48176 14.4609 10.2038 14.5511C10.6641 14.6053 11.1244 14.5601 11.5487 14.3706C12.3519 14.0186 12.4783 13.089 11.8014 12.5294C11.5667 12.3398 11.305 12.1954 11.0342 12.0781C10.3302 11.7712 9.5991 11.5365 8.93119 11.1394C7.85713 10.4986 7.17117 9.60502 7.2524 8.29629C7.34266 6.81606 8.18205 5.88641 9.53592 5.39902C10.0955 5.19143 10.0955 5.20046 10.1045 4.61378C10.1045 4.41522 10.1045 4.21665 10.1045 4.01809C10.1136 3.57582 10.1948 3.50362 10.628 3.48557C10.7634 3.48557 10.8988 3.48557 11.0342 3.48557C11.9729 3.48557 11.9729 3.48557 11.9729 4.42424C11.9729 5.08312 11.9729 5.09215 12.6317 5.19143C13.1372 5.27266 13.6156 5.41708 14.0849 5.62467C14.3466 5.742 14.4369 5.92252 14.3647 6.19329C14.2473 6.59945 14.139 7.00561 14.0037 7.40274C13.8773 7.78182 13.76 7.83597 13.3989 7.66448C12.6678 7.31248 11.9007 7.15904 11.0883 7.20417C10.8717 7.2132 10.6732 7.24027 10.4746 7.33053C9.77961 7.63741 9.66228 8.4046 10.258 8.88296C10.5558 9.12665 10.8988 9.29814 11.2598 9.44255C11.8736 9.69528 12.4964 9.948 13.0921 10.2729C14.9604 11.3109 15.4658 13.6576 14.1481 15.2551C13.6697 15.8328 13.056 16.2209 12.3249 16.4195C12.009 16.5097 11.8646 16.6722 11.8826 16.9971C11.9007 17.322 11.8826 17.6379 11.8826 17.9629C11.8826 18.2517 11.7382 18.4051 11.4494 18.4141C11.1064 18.4232 10.7544 18.4232 10.4114 18.4141C10.1045 18.4051 9.96012 18.2336 9.96012 17.9358C9.96012 17.7011 9.96012 17.4664 9.9511 17.2318C9.94207 16.7173 9.93305 16.6902 9.42761 16.609C8.78678 16.5097 8.164 16.3653 7.57733 16.0765C7.13507 15.8689 7.08994 15.7515 7.2163 15.2732Z" fill="#00AC4E"/>
<path d="M35.4851 22.7823H34.2125C33.3731 20.2099 31.7304 17.9264 29.5372 16.1574C29.5372 16.0761 29.5191 15.9859 29.5011 15.9047C29.0408 14.2891 29.6094 12.8179 30.2683 11.7618C30.7286 11.0217 30.1329 10.074 29.2664 10.1823C27.3259 10.426 25.9901 11.1391 25.0694 11.9424C24.4376 12.4929 23.9863 13.233 23.7878 14.0544C22.3978 19.8128 17.208 24.1 11.0254 24.1C8.01981 24.1 5.25794 23.0891 3.04663 21.3923C2.27944 23.053 1.86426 24.8672 1.86426 26.7716C1.86426 27.8006 1.99062 28.8024 2.22529 29.7682C2.22529 29.7682 2.22529 29.7862 2.23431 29.8133C2.47801 30.8152 2.84806 31.7809 3.3174 32.6925C3.94018 34.0374 4.84275 35.6078 6.0883 36.8805C7.88443 38.7308 8.1913 41.0233 8.23643 42.0161V42.4403C8.23643 42.4584 8.23643 42.4764 8.23643 42.4945C8.23643 42.5035 8.23643 42.5035 8.23643 42.5035C8.27253 42.9909 8.67869 43.379 9.17511 43.379H14.8794C15.3938 43.379 15.8181 42.9638 15.8181 42.4403V41.0323C16.6484 41.1406 17.4968 41.2038 18.3543 41.2038C19.0312 41.2038 19.6901 41.1677 20.349 41.0955V42.4403C20.349 42.9548 20.7642 43.379 21.2876 43.379H27.01C27.5244 43.379 27.9486 42.9638 27.9486 42.4403V41.0323C27.9577 40.563 28.1201 38.6946 29.8892 37.0971C29.9524 37.0429 30.0155 36.9888 30.0787 36.9346C30.0968 36.9166 30.1148 36.9076 30.1329 36.8895C32.1005 35.1385 33.5536 32.9543 34.3028 30.5173H35.5032C36.4599 30.5173 37.2361 29.7411 37.2361 28.7844V24.5152C37.2181 23.5585 36.4419 22.7823 35.4851 22.7823ZM28.3458 23.0891C27.5605 23.0891 26.9287 22.4573 26.9287 21.6721C26.9287 20.8869 27.5605 20.2551 28.3458 20.2551C29.131 20.2551 29.7628 20.8869 29.7628 21.6721C29.7628 22.4573 29.131 23.0891 28.3458 23.0891Z" fill="#00AC4E"/>
</svg>
