<svg width="17" height="17" viewBox="0 0 17 17" fill="none" xmlns="http://www.w3.org/2000/svg">
<g clip-path="url(#clip0)">
<path d="M2.36473 15.2816H15.0775C16.0648 15.2816 16.866 14.4804 16.866 13.493V5.89001C16.866 4.90264 16.0648 4.10145 15.0775 4.10145H11.3873C11.1613 4.10145 10.9784 4.28429 10.9784 4.51036C10.9784 4.73642 11.1613 4.91927 11.3873 4.91927H15.0775C15.616 4.91927 16.0515 5.35477 16.0515 5.89333V13.4964C16.0515 14.0349 15.616 14.4704 15.0775 14.4704H2.36473C1.82617 14.4704 1.39066 14.0349 1.39066 13.4964V5.89001C1.39066 5.35145 1.82617 4.91594 2.36473 4.91594H7.73706L6.37071 6.28229C6.21113 6.44187 6.21113 6.69785 6.37071 6.85743C6.45049 6.93721 6.55355 6.97711 6.65993 6.97711C6.76632 6.97711 6.86937 6.93721 6.94916 6.85743L9.01033 4.79626C9.1699 4.63669 9.1699 4.3807 9.01033 4.22113L6.94916 2.15996C6.78959 2.00039 6.5336 2.00039 6.37403 2.15996C6.21446 2.31954 6.21446 2.57552 6.37403 2.7351L7.74038 4.10145H2.36473C1.37737 4.10145 0.576172 4.90264 0.576172 5.89001V13.493C0.576172 14.4771 1.37737 15.2816 2.36473 15.2816Z" fill="#00AC4E"/>
</g>
<defs>
<clipPath id="clip0">
<rect width="16.2899" height="16.2899" fill="white" transform="translate(0.576172 0.516113)"/>
</clipPath>
</defs>
</svg>
