<svg width="32" height="31" viewBox="0 0 32 31" fill="none" xmlns="http://www.w3.org/2000/svg">
<path fill-rule="evenodd" clip-rule="evenodd" d="M21.9111 18.0165H12.0711L9.95669 10.2951H25.7861L21.9111 18.0165ZM27.9819 8.94126C27.5079 8.17684 26.6864 7.72128 25.7848 7.72128H9.25149L8.45453 4.80904C8.30082 4.24924 7.79061 3.8606 7.20807 3.8606H4.62474C3.91044 3.8606 3.33307 4.43712 3.33307 5.14749C3.33307 5.85786 3.91044 6.43439 4.62474 6.43439H6.22124L9.83661 19.6418C9.99032 20.2016 10.5005 20.5902 11.0831 20.5902H22.7081C23.1976 20.5902 23.6445 20.3148 23.8641 19.8786L28.0956 11.4456C28.4999 10.6412 28.456 9.70567 27.9819 8.94126ZM10.4375 23.164C9.36801 23.164 8.50001 24.0275 8.50001 25.0944C8.50001 26.1612 9.36801 27.0247 10.4375 27.0247C11.507 27.0247 12.375 26.1612 12.375 25.0944C12.375 24.0275 11.507 23.164 10.4375 23.164ZM21.4166 25.0944C21.4166 24.0275 22.2846 23.164 23.3541 23.164C24.4236 23.164 25.2916 24.0275 25.2916 25.0944C25.2916 26.1612 24.4236 27.0247 23.3541 27.0247C22.2846 27.0247 21.4166 26.1612 21.4166 25.0944Z" fill="black"/>
<mask id="mask0" mask-type="alpha" maskUnits="userSpaceOnUse" x="3" y="3" width="26" height="25">
<path fill-rule="evenodd" clip-rule="evenodd" d="M21.9111 18.0165H12.0711L9.95669 10.2951H25.7861L21.9111 18.0165ZM27.9819 8.94126C27.5079 8.17684 26.6864 7.72128 25.7848 7.72128H9.25149L8.45453 4.80904C8.30082 4.24924 7.79061 3.8606 7.20807 3.8606H4.62474C3.91044 3.8606 3.33307 4.43712 3.33307 5.14749C3.33307 5.85786 3.91044 6.43439 4.62474 6.43439H6.22124L9.83661 19.6418C9.99032 20.2016 10.5005 20.5902 11.0831 20.5902H22.7081C23.1976 20.5902 23.6445 20.3148 23.8641 19.8786L28.0956 11.4456C28.4999 10.6412 28.456 9.70567 27.9819 8.94126ZM10.4375 23.164C9.36801 23.164 8.50001 24.0275 8.50001 25.0944C8.50001 26.1612 9.36801 27.0247 10.4375 27.0247C11.507 27.0247 12.375 26.1612 12.375 25.0944C12.375 24.0275 11.507 23.164 10.4375 23.164ZM21.4166 25.0944C21.4166 24.0275 22.2846 23.164 23.3541 23.164C24.4236 23.164 25.2916 24.0275 25.2916 25.0944C25.2916 26.1612 24.4236 27.0247 23.3541 27.0247C22.2846 27.0247 21.4166 26.1612 21.4166 25.0944Z" fill="white"/>
</mask>
<g mask="url(#mask0)">
<rect x="0.75" width="31" height="30.8855" fill="#00AC4E"/>
</g>
</svg>
