<svg width="26" height="26" viewBox="0 0 26 26" fill="none" xmlns="http://www.w3.org/2000/svg">
<path fill-rule="evenodd" clip-rule="evenodd" d="M17.4019 15.1176H9.37073L7.64494 8.79217H20.5647L17.4019 15.1176ZM22.3574 7.68315C21.9705 7.05693 21.3 6.68372 20.5641 6.68372H7.0698L6.41933 4.29797C6.29387 3.83938 5.87745 3.521 5.40199 3.521H3.2935C2.7105 3.521 2.23926 3.9933 2.23926 4.57524C2.23926 5.15718 2.7105 5.62948 3.2935 5.62948H4.59654L7.54737 16.4492C7.67282 16.9078 8.08925 17.2262 8.56471 17.2262H18.0529C18.4525 17.2262 18.8172 17.0005 18.9964 16.6432L22.4501 9.7347C22.7801 9.0758 22.7443 8.30937 22.3574 7.68315ZM8.03792 19.3346C7.16501 19.3346 6.45656 20.042 6.45656 20.916C6.45656 21.7899 7.16501 22.4973 8.03792 22.4973C8.91084 22.4973 9.61929 21.7899 9.61929 20.916C9.61929 20.042 8.91084 19.3346 8.03792 19.3346ZM16.999 20.916C16.999 20.042 17.7074 19.3346 18.5803 19.3346C19.4533 19.3346 20.1617 20.042 20.1617 20.916C20.1617 21.7899 19.4533 22.4973 18.5803 22.4973C17.7074 22.4973 16.999 21.7899 16.999 20.916Z" fill="white"/>
<mask id="mask0" mask-type="alpha" maskUnits="userSpaceOnUse" x="2" y="3" width="21" height="20">
<path fill-rule="evenodd" clip-rule="evenodd" d="M17.4019 15.1176H9.37073L7.64494 8.79217H20.5647L17.4019 15.1176ZM22.3574 7.68315C21.9705 7.05693 21.3 6.68372 20.5641 6.68372H7.0698L6.41933 4.29797C6.29387 3.83938 5.87745 3.521 5.40199 3.521H3.2935C2.7105 3.521 2.23926 3.9933 2.23926 4.57524C2.23926 5.15718 2.7105 5.62948 3.2935 5.62948H4.59654L7.54737 16.4492C7.67282 16.9078 8.08925 17.2262 8.56471 17.2262H18.0529C18.4525 17.2262 18.8172 17.0005 18.9964 16.6432L22.4501 9.7347C22.7801 9.0758 22.7443 8.30937 22.3574 7.68315ZM8.03792 19.3346C7.16501 19.3346 6.45656 20.042 6.45656 20.916C6.45656 21.7899 7.16501 22.4973 8.03792 22.4973C8.91084 22.4973 9.61929 21.7899 9.61929 20.916C9.61929 20.042 8.91084 19.3346 8.03792 19.3346ZM16.999 20.916C16.999 20.042 17.7074 19.3346 18.5803 19.3346C19.4533 19.3346 20.1617 20.042 20.1617 20.916C20.1617 21.7899 19.4533 22.4973 18.5803 22.4973C17.7074 22.4973 16.999 21.7899 16.999 20.916Z" fill="white"/>
</mask>
<g mask="url(#mask0)">
<rect x="0.130859" y="0.358154" width="25.3018" height="25.3018" fill="white"/>
</g>
</svg>
