<svg height="512pt" viewBox="0 -27 512 512" width="512pt" xmlns="http://www.w3.org/2000/svg"><path d="m511.996094 196.230469-21.785156 247.738281h-.011719c-60.289063 17.28125-123.800781 19.320312-184.886719 6.125-7-1.507812-13.96875-3.21875-20.898438-5.132812l-3.570312-.992188-24.839844-166.433594-24.835937 166.433594-3.574219.992188c-47.09375 13-96.070312 16.75-144.230469 11.265624-20.742187-2.371093-41.335937-6.457031-61.566406-12.257812l-21.796875-247.738281 26.863281-114.125 3.816407-16.230469 254.1875-29.015625 196.453124 29.015625zm0 0" fill="#f0c398"/><path d="m318.980469 424.992188c0 11.695312-5.777344 19.667968-13.667969 25.101562-7-1.507812-13.96875-3.21875-20.898438-5.132812l-3.570312-.992188-24.839844-166.433594c37.105469 0 62.976563 110.6875 62.976563 147.457032zm0 0" fill="#d89d6c"/><path d="m77.960938 430.4375c3.082031 9.789062 4.816406 18.347656 5.402343 25.789062-20.742187-2.371093-41.335937-6.457031-61.566406-12.257812l-21.796875-247.738281 26.863281-114.125 74.242188-16.230469c-34.042969 58.183594-59.914063 247.917969-23.144531 364.5625zm0 0" fill="#d89d6c"/><path d="m30.679688 65.878906h87.636718c0 58.042969-63.863281 111.304688-118.31249975 130.351563zm0 0" fill="#c48353"/><path d="m512 196.230469c-54.449219-19.058594-118.304688-72.308594-118.292969-130.351563h87.613281zm0 0" fill="#c48353"/><path d="m30.6875 7.835938h450.660156v58.042968h-450.660156zm0 0" fill="#515a5e"/><path d="m237 404.902344-5.832031 39.070312-3.574219.992188c-67.386719 18.597656-138.597656 18.265625-205.796875-.992188l-3.4375-39.070312s110.78125 20.753906 218.640625 0zm0 0" fill="#d89d6c"/><path d="m275.023438 404.898438 5.828124 39.066406 3.574219.996094c67.386719 18.597656 138.597657 18.261718 205.796875-.996094l3.4375-39.066406s-110.78125 20.75-218.636718 0zm0 0" fill="#d89d6c"/><path d="m30.6875 7.835938h104.460938v58.042968h-104.460938zm0 0" fill="#343c3f"/><path d="m283.171875 65.875v101.828125c0 15.738281-12.769531 28.503906-28.515625 28.503906h-25.789062v-.039062c15.078124-.742188 27.0625-13.207031 27.0625-28.464844v-101.828125zm0 0" fill="#d89d6c"/><g fill="#c48353"><path d="m316.742188 73.71875c-4.328126 0-7.835938-3.507812-7.835938-7.835938v-58.046874c0-4.328126 3.507812-7.835938 7.835938-7.835938 4.328124 0 7.835937 3.507812 7.835937 7.835938v58.042968c0 4.332032-3.507813 7.839844-7.835937 7.839844zm0 0"/><path d="m192.324219 73.71875c-4.328125 0-7.835938-3.507812-7.835938-7.835938v-58.046874c0-4.328126 3.507813-7.835938 7.835938-7.835938s7.835937 3.507812 7.835937 7.835938v58.042968c0 4.332032-3.507812 7.839844-7.835937 7.839844zm0 0"/><path d="m72.828125 73.71875c-4.328125 0-7.839844-3.507812-7.839844-7.835938v-58.046874c0-4.328126 3.511719-7.835938 7.839844-7.835938s7.835937 3.507812 7.835937 7.835938v58.042968c0 4.332032-3.507812 7.839844-7.835937 7.839844zm0 0"/><path d="m439.210938 73.71875c-4.328126 0-7.839844-3.507812-7.839844-7.835938v-58.046874c0-4.328126 3.511718-7.835938 7.839844-7.835938 4.328124 0 7.835937 3.507812 7.835937 7.835938v58.042968c0 4.332032-3.507813 7.839844-7.835937 7.839844zm0 0"/><path d="m284.871094 44.699219c-3.316406 0-6.335938-2.171875-7.410156-5.296875-1.105469-3.214844.046874-6.878906 2.800781-8.882813 5.785156-4.210937 13.976562 1.308594 12.203125 8.265625-.875 3.425782-4.050782 5.914063-7.59375 5.914063zm0 0"/></g></svg>