<svg width="13" height="13" viewBox="0 0 13 13" fill="none" xmlns="http://www.w3.org/2000/svg">
<g id="Icon/Fill/star">
<path id="Mask" fill-rule="evenodd" clip-rule="evenodd" d="M9.74029 11.0662C9.6608 11.0662 9.58081 11.0476 9.50736 11.0094L6.94214 9.66915L4.37742 11.0094C4.20738 11.0974 4.00212 11.0823 3.84818 10.9696C3.69323 10.8569 3.61626 10.6663 3.64896 10.4776L4.13745 7.64625L2.06475 5.64147C1.9269 5.50815 1.8771 5.30792 1.93596 5.1248C1.99482 4.94268 2.15229 4.80937 2.34245 4.7822L5.21002 4.36565L6.49188 1.78685C6.66192 1.44475 7.22286 1.44475 7.3929 1.78685L8.67476 4.36565L11.5423 4.7822C11.7325 4.80937 11.89 4.94268 11.9488 5.1248C12.0077 5.30792 11.9579 5.50815 11.82 5.64147L9.74733 7.64625L10.2358 10.4776C10.2685 10.6663 10.191 10.8569 10.0366 10.9696C9.94907 11.034 9.84493 11.0662 9.74029 11.0662Z" fill="black"/>
<mask id="mask0" mask-type="alpha" maskUnits="userSpaceOnUse" x="1" y="1" width="11" height="11">
<path id="Mask_2" fill-rule="evenodd" clip-rule="evenodd" d="M9.74029 11.0662C9.6608 11.0662 9.58081 11.0476 9.50736 11.0094L6.94214 9.66915L4.37742 11.0094C4.20738 11.0974 4.00212 11.0823 3.84818 10.9696C3.69323 10.8569 3.61626 10.6663 3.64896 10.4776L4.13745 7.64625L2.06475 5.64147C1.9269 5.50815 1.8771 5.30792 1.93596 5.1248C1.99482 4.94268 2.15229 4.80937 2.34245 4.7822L5.21002 4.36565L6.49188 1.78685C6.66192 1.44475 7.22286 1.44475 7.3929 1.78685L8.67476 4.36565L11.5423 4.7822C11.7325 4.80937 11.89 4.94268 11.9488 5.1248C12.0077 5.30792 11.9579 5.50815 11.82 5.64147L9.74733 7.64625L10.2358 10.4776C10.2685 10.6663 10.191 10.8569 10.0366 10.9696C9.94907 11.034 9.84493 11.0662 9.74029 11.0662Z" fill="white"/>
</mask>
<g mask="url(#mask0)">
<g id="&#240;&#159;&#142;&#168; Color">
<rect id="Base" x="0.905273" y="0.500977" width="12.074" height="12.074" fill="#00AC4E"/>
</g>
</g>
</g>
</svg>
