<svg id="Layer_1" enable-background="new 0 0 464 464" height="512" viewBox="0 0 464 464" width="512" xmlns="http://www.w3.org/2000/svg"><path d="m404 74h-53.95c12.473-36.895-15.885-74-53.919-74h-129.131c-38.224 0-65.355 37.601-53.05 74h-53.95c-33.137 0-60 26.863-60 60v256c0 8.837 7.163 16 16 16h85v42c0 8.837 7.163 16 16 16 5.5 0 233.857 0 230 0 8.837 0 16-7.163 16-16v-42h85c8.837 0 16-7.163 16-16v-256c0-33.137-26.863-60-60-60z" fill="#ff6d7a"/><path d="m341.19 22.03c-10.181-2.794-3.066-2.03-144.19-2.03-38.178 0-65.374 37.546-53.05 74h-53.95c-33.14 0-60 26.86-60 60v252h-14c-8.84 0-16-7.16-16-16v-256c0-33.14 26.86-60 60-60h53.95c-12.297-36.376 14.797-74 53.05-74h129.13c18.17 0 34.59 8.65 45.06 22.03z" fill="#ff808b"/><path d="m117 464c-8.837 0-16-7.163-16-16 0-2.85 0-279.791 0-277 0-10.493 8.507-19 19-19 10.486 0 19 8.499 19 19v172.167c0 35.806 29.027 64.833 64.833 64.833h159.167v40c0 8.837-7.163 16-16 16z" fill="#fe4f60"/><path d="m363 406v-238c0-8.837 7.163-16 16-16 8.832 0 16 7.159 16 16v174c0 8.837 7.163 16 16 16h53v32c0 8.837-7.163 16-16 16z" fill="#fe4f60"/><path d="m222 101v363h20v-363c0-2.209-1.791-4-4-4h-12c-2.209 0-4 1.791-4 4z" fill="#42434d"/><path d="m111 56c0-30.931 25.079-56 56-56h130c30.93 0 56 25.07 56 56 0 30.991-25.133 56-56 56-14.79 0-115.211 0-130 0-30.877 0-56-25.011-56-56z" fill="#ffebd2"/><path d="m345.32 27.68c-8.31-4.88-17.99-7.68-28.32-7.68h-130c-43.623 0-69.99 47.559-48.32 84.32-31.701-18.607-37.137-62.037-11.28-87.92 10.14-10.13 24.14-16.4 39.6-16.4h130c20.6 0 38.59 11.12 48.32 27.68z" fill="#fff3e4"/><path d="m266 72h-68c-8.836 0-16-7.164-16-16s7.164-16 16-16h68c8.836 0 16 7.164 16 16s-7.164 16-16 16z" fill="#ffdfba"/></svg>