<svg width="15" height="15" viewBox="0 0 15 15" fill="none" xmlns="http://www.w3.org/2000/svg">
<path d="M14.7656 7.375C14.7656 3.39062 11.4844 0.109375 7.5 0.109375C3.48633 0.109375 0.234375 3.39062 0.234375 7.375C0.234375 11.3887 3.48633 14.6406 7.5 14.6406C11.4844 14.6406 14.7656 11.3887 14.7656 7.375ZM7.5 8.83984C8.23242 8.83984 8.84766 9.45508 8.84766 10.1875C8.84766 10.9492 8.23242 11.5352 7.5 11.5352C6.73828 11.5352 6.15234 10.9492 6.15234 10.1875C6.15234 9.45508 6.73828 8.83984 7.5 8.83984ZM6.21094 4.00586C6.18164 3.80078 6.35742 3.625 6.5625 3.625H8.4082C8.61328 3.625 8.78906 3.80078 8.75977 4.00586L8.55469 7.99023C8.52539 8.19531 8.37891 8.3125 8.20312 8.3125H6.76758C6.5918 8.3125 6.44531 8.19531 6.41602 7.99023L6.21094 4.00586Z" fill="#FF4D42"/>
</svg>
