<svg width="16" height="16" viewBox="0 0 16 16" fill="none" xmlns="http://www.w3.org/2000/svg">
<path d="M15.5605 5.06445C16.1172 4.50781 16.1172 3.59961 15.5605 3.07227L13.8027 1.31445C13.2754 0.757812 12.3672 0.757812 11.8105 1.31445L10.4629 2.66211C10.3457 2.7793 10.3457 3.01367 10.4629 3.16016L13.7148 6.41211C13.8613 6.5293 14.0957 6.5293 14.2129 6.41211L15.5605 5.06445ZM9.32031 3.80469L1.61523 11.5098L1 15.0547C0.912109 15.5527 1.32227 15.9629 1.82031 15.875L5.36523 15.2598L13.0703 7.55469C13.2168 7.4375 13.2168 7.20312 13.0703 7.05664L9.81836 3.80469C9.67188 3.6875 9.4375 3.6875 9.32031 3.80469ZM4.63281 10.8359C4.45703 10.6895 4.45703 10.4258 4.63281 10.2793L9.14453 5.76758C9.29102 5.5918 9.55469 5.5918 9.70117 5.76758C9.87695 5.91406 9.87695 6.17773 9.70117 6.32422L5.18945 10.8359C5.04297 11.0117 4.7793 11.0117 4.63281 10.8359ZM3.57812 13.2969H4.98438V14.3809L3.08008 14.7031L2.17188 13.7949L2.49414 11.8906H3.57812V13.2969Z" fill="#A6A6A6"/>
</svg>
