<svg width="14" height="16" viewBox="0 0 14 16" fill="none" xmlns="http://www.w3.org/2000/svg">
<path d="M13.123 2.80859L11.6289 1.31445C11.3945 1.08008 10.9551 0.875 10.6328 0.875H5.59375C4.80273 0.875 4.1875 1.51953 4.1875 2.28125V3.6875H1.84375C1.05273 3.6875 0.4375 4.33203 0.4375 5.09375V14.4688C0.4375 15.2598 1.05273 15.875 1.84375 15.875H8.40625C9.16797 15.875 9.8125 15.2598 9.8125 14.4688V13.0625H12.1562C12.918 13.0625 13.5625 12.4473 13.5625 11.6562V3.80469C13.5625 3.48242 13.3574 3.04297 13.123 2.80859ZM8.23047 14.4688H2.01953C1.90234 14.4688 1.84375 14.4102 1.84375 14.293V5.26953C1.84375 5.18164 1.90234 5.09375 2.01953 5.09375H4.1875V11.6562C4.1875 12.4473 4.80273 13.0625 5.59375 13.0625H8.40625V14.293C8.40625 14.4102 8.31836 14.4688 8.23047 14.4688ZM11.9805 11.6562H5.76953C5.65234 11.6562 5.59375 11.5977 5.59375 11.4805V2.45703C5.59375 2.36914 5.65234 2.28125 5.76953 2.28125H8.875V4.85938C8.875 5.26953 9.16797 5.5625 9.57812 5.5625H12.1562V11.4805C12.1562 11.5977 12.0684 11.6562 11.9805 11.6562ZM12.1562 4.15625H10.2812V2.28125H10.5449C10.6035 2.28125 10.6328 2.31055 10.6621 2.33984L12.0977 3.77539C12.127 3.80469 12.1562 3.83398 12.1562 3.89258V4.15625Z" fill="#A6A6A6"/>
</svg>
