<svg width="109" height="45" viewBox="0 0 109 45" fill="none" xmlns="http://www.w3.org/2000/svg">
<g clip-path="url(#clip0)">
<path d="M25.1918 29.3133C22.5359 27.5113 19.2161 26.6102 15.2323 26.6102C10.643 26.6102 6.9131 27.6973 4.0424 29.8715C1.56228 31.7519 0.322221 33.8772 0.322221 36.2473C0.322221 37.5989 0.790905 38.6957 1.72827 39.538C2.76328 40.4391 4.19863 40.8896 6.03431 40.8896C9.29557 40.8896 12.6252 39.7828 16.0232 37.5695C18.8548 35.7087 21.911 32.9566 25.1918 29.3133ZM29.7322 34.7195C26.5686 38.1277 24.0298 40.5958 22.1161 42.1236C22.0575 42.1824 21.9793 42.2117 21.8817 42.2117C21.745 42.2117 21.6767 42.153 21.6767 42.0354C21.6767 41.9376 21.745 41.8494 21.8817 41.771C23.8932 39.8906 26.0217 36.7077 28.2675 32.222C27.7013 31.4778 27.0372 30.7824 26.2756 30.136C23.3854 33.7989 20.5635 36.5411 17.81 38.3628C14.373 40.6154 10.6528 41.7416 6.64946 41.7416C4.52085 41.7416 2.85116 41.2128 1.6404 40.155C0.546799 39.1952 0 37.9417 0 36.3942C0 33.8871 1.26935 31.6638 3.80806 29.7246C6.69829 27.4916 10.5064 26.3751 15.2323 26.3751C19.2356 26.3751 22.614 27.2957 25.3676 29.137C27.0275 27.2762 29.3318 24.485 32.2807 20.7633C35.4639 16.787 37.7388 14.0056 39.1059 12.419C39.2035 12.3602 39.2816 12.3308 39.3402 12.3308C39.477 12.3308 39.5453 12.3896 39.5453 12.5071C39.5453 12.605 39.4867 12.703 39.3695 12.8009C37.2604 15.4061 34.917 19.3432 32.3392 24.6123C31.5972 26.238 30.3863 28.8041 28.7069 32.3102C29.156 32.9566 29.5075 33.554 29.7615 34.1025C31.6948 31.9674 33.6281 29.8225 35.5614 27.6679C37.8659 25.1802 40.2386 22.8102 42.6796 20.5576C44.1052 19.2452 45.2671 18.3149 46.1654 17.7664C47.1418 17.1787 48.0695 16.8849 48.9482 16.8849C49.2608 16.8849 49.4169 16.9828 49.4169 17.1787C49.4169 17.3942 49.2216 17.5019 48.8311 17.5019C46.722 17.5019 44.4762 19.1767 42.0937 22.5262C39.8871 25.6406 37.7388 29.1273 35.6493 32.986C33.5598 36.8252 32.515 39.1855 32.515 40.0669C32.515 40.3216 32.6322 40.4489 32.8665 40.4489C33.3938 40.4489 34.214 39.9885 35.3271 39.0679C35.9911 38.5194 37.1043 37.4813 38.6665 35.9535L38.8715 36.1592C37.2701 37.7261 36.1277 38.7937 35.4443 39.3617C34.3116 40.2823 33.4427 40.7427 32.8372 40.7427C32.1928 40.7427 31.8706 40.4097 31.8706 39.7437C31.8706 37.4716 33.218 34.2591 35.913 30.1066C37.7487 27.286 40.0042 24.3087 42.6796 21.1746C42.7186 21.1355 42.7382 21.0962 42.7382 21.0571C42.7382 21.018 42.6796 20.9983 42.5624 20.9983C41.1564 22.2715 39.184 24.2988 36.6453 27.0803C34.419 29.5483 32.1831 32.0164 29.9372 34.4844C30.4449 35.5813 30.7574 36.7762 30.8746 38.069C30.8746 38.1865 30.8356 38.2452 30.7574 38.2452C30.6598 38.2452 30.611 38.1962 30.611 38.0983C30.4938 36.9427 30.2009 35.8163 29.7322 34.7195ZM29.5564 34.3081C29.3417 33.838 29.0096 33.27 28.5605 32.604C26.8811 36.0514 25.4066 38.4215 24.1373 39.7143C24.1373 39.8122 24.1568 39.8612 24.1958 39.8612C24.2154 39.8612 24.2641 39.8416 24.3423 39.8025C26.2756 37.8829 28.0136 36.0514 29.5564 34.3081ZM28.414 31.9282C29.2146 30.2829 30.3962 27.8246 31.9584 24.5535C34.2237 19.8916 36.3133 16.3757 38.2271 14.0056C38.2271 13.8684 38.1881 13.8391 38.1099 13.9174C36.6843 15.6412 34.751 18.2561 32.3099 21.7623C29.615 25.6602 27.6621 28.3828 26.4514 29.9303C27.1154 30.4395 27.7696 31.1056 28.414 31.9282ZM46.0503 34.5432C42.418 38.6762 40.1137 40.7427 39.1372 40.7427C38.6881 40.7427 38.4634 40.4292 38.4634 39.8025C38.4634 37.8045 39.44 35.8163 41.3927 33.838C41.3927 33.7989 41.3733 33.7793 41.3341 33.7793C40.4749 34.4453 39.645 35.2483 38.8442 36.1885L38.6392 35.9829C40.4163 33.9065 42.6523 32.3298 45.3472 31.2525C46.6753 30.7236 47.9642 30.4592 49.2139 30.4592C49.4678 30.4592 49.8486 30.4788 50.3563 30.5179C48.8722 32.3787 47.388 34.2396 45.9038 36.1004C44.2048 38.3137 43.3553 39.6164 43.3553 40.0081C43.3553 40.2432 43.4628 40.3607 43.6776 40.3607C44.1072 40.3607 44.9763 39.7731 46.2846 38.5978C47.3587 37.6185 48.2179 36.7371 48.8624 35.9535L49.0674 36.1592C48.3644 36.9622 47.5149 37.8242 46.519 38.7447C45.0543 40.0766 44.0291 40.7427 43.4432 40.7427C43.0527 40.7427 42.8574 40.5273 42.8574 40.0963C42.8574 39.2345 43.9412 37.4029 46.1089 34.6019L46.0503 34.5432ZM48.9503 30.7236C46.5288 30.7236 44.1268 32.173 41.7442 35.072C39.8695 37.3442 38.9321 38.9895 38.9321 40.0081C38.9321 40.2432 39.0299 40.3607 39.225 40.3607C39.8891 40.3607 41.5392 38.9601 44.1755 36.1592C45.9527 34.2591 47.5442 32.4474 48.9503 30.7236ZM48.8231 35.9829C49.3893 35.4149 50.5318 34.2494 52.2503 32.4865C53.1487 31.5659 53.9982 30.6648 54.7988 29.7834C54.7792 29.6855 54.7695 29.5386 54.7695 29.3427C54.7695 28.9117 54.877 28.5591 55.0917 28.2849C55.3065 27.9911 55.5604 27.8442 55.8533 27.8442C56.0877 27.8442 56.2048 27.9715 56.2048 28.2262C56.2048 28.5003 55.8338 29.0292 55.0917 29.8128C55.1893 30.5179 55.6386 31.1643 56.4392 31.7519C55.7557 32.4375 54.6035 33.8478 52.9826 35.9829C51.2446 38.2943 50.3756 39.6458 50.3756 40.0375C50.3756 40.2529 50.483 40.3607 50.6978 40.3607C51.1665 40.3607 51.9477 39.9297 53.0412 39.0679C54.0176 38.304 54.8964 37.501 55.6776 36.6586C55.8143 36.5215 56.0194 36.2864 56.2927 35.9535L56.4978 36.1592C55.7362 37.0406 54.8085 37.9417 53.715 38.8623C52.3285 40.0572 51.3227 40.6545 50.6978 40.6545C50.1315 40.6545 49.8483 40.3313 49.8483 39.6849C49.8483 38.1767 51.7816 35.4443 55.6483 31.4875C55.2186 31.0174 54.955 30.557 54.8574 30.1066C53.3927 31.6344 51.4497 33.6617 49.0281 36.1885L48.8231 35.9829ZM55.0624 29.4896C55.6093 28.9216 55.8826 28.5102 55.8826 28.2556C55.8826 28.1772 55.8436 28.138 55.7655 28.138C55.5897 28.138 55.4236 28.2752 55.2675 28.5494C55.1307 28.8235 55.0624 29.137 55.0624 29.4896ZM60.5081 32.3396C60.5667 32.2808 60.5766 32.2318 60.5374 32.1927C60.4788 32.1535 60.4301 32.173 60.3909 32.2514C59.6293 32.9762 58.321 34.2885 56.4657 36.1885L56.2607 35.9829C57.7839 34.5138 59.6099 32.6922 61.7384 30.5179H63.2616C61.797 32.3787 60.3226 34.2297 58.8384 36.071C57.12 38.3236 56.2607 39.6752 56.2607 40.1257C56.2607 40.3019 56.3388 40.3901 56.495 40.3901C56.8465 40.3901 57.5008 39.969 58.4576 39.1267C59.4146 38.2844 60.4301 37.2266 61.5041 35.9535L61.7091 36.1592C59.1705 39.2148 57.3738 40.7427 56.3192 40.7427C55.9287 40.7427 55.7334 40.5273 55.7334 40.0963C55.7334 39.3127 56.2412 38.1668 57.2566 36.6586C57.5301 36.2669 58.6139 34.8273 60.5081 32.3396ZM67.6848 22.4674C67.9778 22.4674 68.1242 22.6633 68.1242 23.055C68.1242 23.3489 68.0071 23.6427 67.7727 23.9365C67.5384 24.2107 67.2943 24.3478 67.0404 24.3478C66.728 24.3478 66.5717 24.1715 66.5717 23.819C66.5717 23.486 66.6889 23.1823 66.9232 22.9081C67.1771 22.6143 67.4311 22.4674 67.6848 22.4674ZM70.4885 28.138L68.643 30.5179C67.159 32.3983 65.6845 34.2787 64.2198 36.1592C62.5014 38.3922 61.642 39.7046 61.642 40.0963C61.642 40.3313 61.7495 40.4489 61.9643 40.4489C62.3939 40.4489 63.263 39.8416 64.5713 38.6272C65.6259 37.6479 66.4852 36.7565 67.1491 35.9535L67.3541 36.1592C66.6121 37.021 65.7626 37.9024 64.8057 38.8035C63.341 40.155 62.3158 40.8308 61.7299 40.8308C61.3394 40.8308 61.1441 40.6154 61.1441 40.1844C61.1441 39.4596 61.642 38.3628 62.638 36.8937C63.3606 35.7968 64.8741 33.7793 67.1784 30.8411L67.1198 30.7824C65.6162 32.2514 63.8097 34.0534 61.7006 36.1885L61.4956 35.9829C61.6519 35.8066 62.9309 34.5628 65.3329 32.2514C67.5202 30.136 68.8969 28.6865 69.4632 27.903C69.1509 27.8442 68.8287 27.8148 68.4966 27.8148C67.5788 27.8148 66.7683 28.2458 66.0653 29.1076C66.0458 29.1467 65.997 29.1664 65.9188 29.1664C65.7822 29.1664 65.7137 29.1174 65.7137 29.0195C65.7137 28.9998 65.7333 28.9705 65.7723 28.9313C66.7879 27.7169 67.8521 27.1097 68.9652 27.1097C69.2192 27.1097 69.561 27.1488 69.9905 27.2272L73.6814 22.5556H74.9117L71.0157 27.4916C71.2892 27.5504 71.5529 27.5798 71.8066 27.5798C72.4121 27.5798 72.9296 27.3056 73.3592 26.7571C73.4177 26.6983 73.4666 26.669 73.5056 26.669C73.6034 26.669 73.6521 26.7767 73.6521 26.9922C72.9882 27.8345 72.2266 28.2556 71.3673 28.2556C71.0157 28.2556 70.7228 28.2164 70.4885 28.138ZM74.9815 30.4004C74.4738 30.4004 73.7512 30.9195 72.8139 31.9576C72.6771 32.1143 71.8375 33.1426 70.2947 35.0427C69.9822 35.4344 69.5526 35.9926 69.0058 36.7174C70.9391 35.64 72.5209 34.4453 73.7512 33.1329C74.7668 32.0751 75.2744 31.2721 75.2744 30.7236C75.2744 30.5082 75.1769 30.4004 74.9815 30.4004ZM69.7674 33.838C68.869 34.5432 68.0587 35.3168 67.3361 36.1592L67.1311 35.9535C67.8341 35.1505 69.1034 34.0241 70.9391 32.5746C73.0286 30.9293 74.3859 30.1066 75.0108 30.1066C75.4013 30.1066 75.5967 30.3123 75.5967 30.7236C75.5967 31.4091 75.0791 32.2906 74.0442 33.3679C72.7748 34.6803 70.988 35.9437 68.6836 37.1581C67.6876 38.5881 67.1896 39.5184 67.1896 39.9494C67.1896 40.2823 67.3361 40.4489 67.629 40.4489C68.3711 40.4489 69.4648 39.9297 70.9098 38.8916C72.2183 37.9318 73.3118 36.9427 74.1906 35.9241L74.3957 36.1298C73.4387 37.2266 72.2573 38.2746 70.8512 39.2736C69.4452 40.2529 68.3906 40.7427 67.6876 40.7427C67.0236 40.7427 66.6917 40.4391 66.6917 39.8318C66.6917 38.304 67.7266 36.3257 69.7967 33.8968C69.7967 33.8577 69.787 33.838 69.7674 33.838ZM80.5541 36.1592C77.9567 39.2148 76.0331 40.7427 74.7834 40.7427C74.139 40.7427 73.8167 40.4292 73.8167 39.8025C73.8167 39.1561 74.2756 38.1865 75.1935 36.8937C75.7598 36.1101 77.3905 34.0437 80.0854 30.6942C80.1244 30.6551 80.1341 30.6158 80.1147 30.5767C80.0951 30.557 80.0658 30.5669 80.0268 30.6061C78.0153 32.3886 76.1309 34.2494 74.3733 36.1885L74.1683 35.9829C76.0038 33.8086 78.2887 31.605 81.0228 29.372C82.9755 26.904 84.9381 24.4262 86.9106 21.9385C90.2694 17.8839 92.3102 15.8566 93.0328 15.8566C93.3843 15.8566 93.5601 16.0525 93.5601 16.4442C93.5601 17.4823 92.5641 19.1767 90.5722 21.5272C88.3264 24.1912 85.69 26.5514 82.6632 28.6081C81.2179 30.5277 79.5776 32.6824 77.742 35.072C75.5547 37.9318 74.4612 39.5968 74.4612 40.0669C74.4612 40.3216 74.5784 40.4489 74.8127 40.4489C75.9648 40.4489 77.8103 38.9504 80.349 35.9535L80.5541 36.1592ZM83.2197 27.8148C83.2197 27.854 83.249 27.8736 83.3076 27.8736C86.2955 25.6406 88.7755 23.3097 90.748 20.8808C92.3884 18.8632 93.2086 17.4334 93.2086 16.5911C93.2086 16.3561 93.1108 16.2385 92.9156 16.2385C92.3102 16.2385 89.0783 20.0973 83.2197 27.8148Z" fill="#101010" stroke="#101010" stroke-width="0.5"/>
<path fill-rule="evenodd" clip-rule="evenodd" d="M98.8248 13.4929L89.8828 30.194C92.9663 25.3744 99.5186 15.0857 101.06 12.4878C102.602 9.88986 103.193 8.1579 103.296 7.61664C103.296 5.76097 102.062 7.51356 101.446 8.6218L98.8248 13.4929ZM101.292 9.74236C101.626 9.32998 102.062 9.51037 101.908 10.0516C101.754 10.5929 100.495 12.5259 99.7499 13.3764C99.0047 14.2269 100.957 10.1547 101.292 9.74236Z" fill="black"/>
<path d="M89.8823 30.1939L89.8145 30.1573L89.9472 30.2357L89.8823 30.1939ZM98.8243 13.4928L98.7565 13.4561V13.4563L98.8243 13.4928ZM101.06 12.4877L101.126 12.5273L101.06 12.4877ZM103.295 7.61656L103.371 7.63104L103.372 7.62386V7.61656H103.295ZM101.445 8.62172L101.378 8.58403L101.377 8.585L101.445 8.62172ZM101.908 10.0515L101.834 10.0303L101.908 10.0515ZM101.291 9.74228L101.231 9.69352L101.291 9.74228ZM99.7493 13.3763L99.6914 13.3253L99.7493 13.3763ZM102.602 8.93101L102.676 8.95226L102.602 8.93101ZM101.985 8.62172L101.919 8.58194L101.985 8.62172ZM89.9501 30.2304L98.8921 13.5294L98.7565 13.4563L89.8145 30.1573L89.9501 30.2304ZM100.994 12.4482C99.4527 15.0447 92.9013 25.3319 89.8174 30.1522L89.9472 30.2357C93.0302 25.4168 99.5834 15.1266 101.126 12.5273L100.994 12.4482ZM103.22 7.6021C103.119 8.13061 102.533 9.85363 100.994 12.4482L101.126 12.5273C102.67 9.92591 103.266 8.185 103.371 7.63104L103.22 7.6021ZM101.513 8.6594C101.821 8.10547 102.278 7.40064 102.653 7.06538C102.746 6.98194 102.829 6.92594 102.9 6.89922C102.969 6.87303 103.016 6.87779 103.052 6.90029C103.091 6.92501 103.134 6.98251 103.167 7.102C103.199 7.22011 103.218 7.38797 103.218 7.61656H103.372C103.372 7.38125 103.353 7.19795 103.315 7.06104C103.278 6.92552 103.22 6.82414 103.134 6.76954C103.044 6.7127 102.942 6.71767 102.845 6.7546C102.749 6.79099 102.65 6.86106 102.55 6.94996C102.154 7.30414 101.686 8.02973 101.378 8.58403L101.513 8.6594ZM98.8921 13.5296L101.513 8.65844L101.377 8.585L98.7565 13.4561L98.8921 13.5296ZM101.982 10.0728C102.063 9.78718 101.998 9.55427 101.815 9.46914C101.637 9.38625 101.408 9.47483 101.231 9.69352L101.351 9.79103C101.508 9.59733 101.665 9.56992 101.75 9.60944C101.83 9.64674 101.907 9.77464 101.834 10.0303L101.982 10.0728ZM99.8073 13.4273C100.183 12.9981 100.687 12.2987 101.115 11.6402C101.329 11.3106 101.525 10.9901 101.677 10.7176C101.829 10.4474 101.941 10.2179 101.982 10.0728L101.834 10.0303C101.798 10.1559 101.695 10.371 101.543 10.6419C101.393 10.9107 101.199 11.2281 100.986 11.5557C100.559 12.2116 100.06 12.904 99.6914 13.3253L99.8073 13.4273ZM101.231 9.69352C101.185 9.75092 101.115 9.86532 101.031 10.0137C100.947 10.164 100.845 10.3546 100.736 10.5683C100.517 10.9959 100.264 11.5181 100.045 12.0009C99.8269 12.4825 99.6403 12.9286 99.5552 13.2023C99.534 13.2708 99.5182 13.331 99.5102 13.3794C99.5062 13.4036 99.5037 13.4271 99.504 13.4484C99.5043 13.4678 99.507 13.4947 99.5207 13.5192C99.5282 13.5325 99.5397 13.5463 99.5565 13.5563C99.5734 13.5665 99.5916 13.5703 99.6081 13.5701C99.6382 13.5698 99.6639 13.5566 99.6813 13.5456C99.7179 13.5225 99.76 13.4813 99.8073 13.4273L99.6914 13.3253C99.6456 13.3776 99.6157 13.4043 99.599 13.4148C99.5899 13.4206 99.5938 13.4156 99.6066 13.4155C99.6144 13.4154 99.6249 13.4172 99.6356 13.4235C99.6459 13.4297 99.6519 13.4377 99.6551 13.4433C99.6602 13.4524 99.6584 13.4564 99.6582 13.446C99.6581 13.4374 99.6591 13.424 99.6624 13.4048C99.6687 13.3665 99.682 13.3141 99.7025 13.2483C99.7843 12.9848 99.9672 12.5466 100.186 12.0649C100.404 11.5844 100.655 11.0644 100.873 10.639C100.982 10.4263 101.082 10.2377 101.165 10.0897C101.25 9.93977 101.314 9.83672 101.351 9.79103L101.231 9.69352ZM89.9489 30.2329L99.6957 13.5255L99.5626 13.4474L89.8157 30.1548L89.9489 30.2329ZM101.689 10.6962C101.919 10.3684 102.134 10.0406 102.308 9.74167C102.48 9.44393 102.614 9.17044 102.676 8.95226L102.527 8.90976C102.471 9.109 102.345 9.3691 102.174 9.66395C102.004 9.95766 101.791 10.2815 101.563 10.6072L101.689 10.6962ZM102.676 8.95226C102.753 8.67977 102.812 8.42484 102.842 8.21962C102.856 8.11713 102.864 8.02507 102.863 7.94839C102.862 7.87473 102.852 7.80375 102.823 7.75218C102.807 7.72464 102.783 7.69878 102.749 7.6844C102.715 7.66994 102.679 7.67104 102.647 7.68015C102.587 7.69708 102.524 7.74542 102.46 7.81128C102.328 7.94627 102.15 8.19462 101.919 8.58194L102.051 8.6615C102.282 8.27562 102.451 8.04072 102.57 7.91959C102.631 7.85738 102.669 7.83445 102.689 7.82904C102.696 7.82696 102.695 7.82913 102.69 7.82698C102.685 7.82491 102.685 7.82262 102.689 7.8289C102.698 7.84498 102.708 7.88273 102.709 7.95103C102.71 8.0163 102.703 8.09942 102.689 8.19749C102.661 8.39336 102.604 8.64101 102.527 8.90976L102.676 8.95226ZM101.919 8.58194C101.742 8.87794 101.564 9.20849 101.393 9.55056L101.531 9.61991C101.701 9.28022 101.876 8.95325 102.051 8.6615L101.919 8.58194Z" fill="#101010"/>
<path d="M103.835 0C102.908 0.0994183 101.994 0.293202 101.107 0.578351C100.219 0.855144 99.3654 1.23176 98.5619 1.70103C97.7594 2.16982 97.0351 2.76209 96.4158 3.45619C95.8019 4.15185 95.3239 4.95707 95.0067 5.8299C94.6963 6.70454 94.5276 7.6234 94.5071 8.55155C94.4891 9.47981 94.5744 10.4072 94.7615 11.3165C95.1516 13.1361 95.768 14.8994 96.5962 16.5649C97.0055 17.392 97.5448 18.1474 98.1934 18.8026C98.8437 19.4491 99.6355 19.9342 100.506 20.2191C101.379 20.4909 102.305 20.5498 103.206 20.3907C105.024 20.0677 106.652 19.0618 107.758 17.5778C108.292 16.8433 108.666 15.9742 108.683 15.0742C108.697 14.6268 108.618 14.1814 108.452 13.766C108.283 13.3493 108.042 12.9656 107.74 12.6325C107.108 11.9751 106.323 11.4853 105.456 11.2067C104.584 10.9166 103.677 10.743 102.76 10.6902C101.839 10.6323 100.914 10.6566 99.9972 10.7629C98.1572 10.9605 96.3625 11.4627 94.686 12.249C93.8556 12.6412 93.0855 13.1511 92.3996 13.7629C92.061 14.0676 91.7632 14.4148 91.5131 14.7959C91.3907 14.9839 91.2834 15.1814 91.1924 15.3866C91.097 15.5923 91.0196 15.806 90.9612 16.0253C90.8463 16.4627 90.8113 16.9175 90.8579 17.3675C90.9091 17.8206 91.0205 18.2647 91.1893 18.6881C91.5224 19.5433 92.0203 20.3335 92.5229 21.116C93.0502 21.8912 93.5335 22.6956 93.9706 23.5253C94.3884 24.365 94.6891 25.3036 94.6413 26.2639C94.6161 26.7418 94.5119 27.2122 94.3329 27.6557C94.1522 28.0927 93.9225 28.5077 93.6484 28.8928C93.1017 29.6596 92.4516 30.3465 91.7166 30.934C90.2581 32.117 88.59 33 86.8741 33.7175C86.0138 34.0774 85.1401 34.3975 84.2531 34.6778C83.3666 34.967 82.4678 35.2175 81.5566 35.4124C82.4647 35.2052 83.3605 34.9485 84.2439 34.6531C85.1273 34.3577 85.9999 34.0345 86.854 33.6619C88.5499 32.9196 90.2073 32.018 91.6334 30.8304C92.3503 30.2422 92.985 29.5597 93.5204 28.8015C93.7848 28.4244 94.0052 28.0181 94.1772 27.5907C94.3443 27.1647 94.4398 26.7136 94.4593 26.2562C94.4979 25.3392 94.2034 24.4392 93.7887 23.6196C93.3488 22.8006 92.8635 22.0072 92.3348 21.2428C91.8245 20.4619 91.3127 19.6655 90.9596 18.7809C90.7772 18.3357 90.6575 17.8673 90.6035 17.3892C90.5525 16.9078 90.5885 16.4211 90.7099 15.9526C90.7698 15.7192 90.8497 15.4916 90.9488 15.2722C91.0447 15.052 91.1582 14.84 91.288 14.6381C91.549 14.2391 91.8598 13.8753 92.2131 13.5557C92.9212 12.9251 93.7161 12.4001 94.5734 11.9969C96.2757 11.1926 98.0991 10.6768 99.9695 10.4706C100.904 10.3602 101.846 10.3333 102.785 10.3902C103.729 10.443 104.662 10.6203 105.56 10.9175C106.476 11.2094 107.305 11.7279 107.969 12.4253C108.296 12.7855 108.557 13.2006 108.74 13.6515C108.921 14.1059 109.006 14.593 108.99 15.082C108.959 16.0608 108.554 16.9809 107.994 17.7479C106.84 19.288 105.144 20.3292 103.252 20.6598C102.31 20.829 101.341 20.7642 100.429 20.4708C99.5178 20.1776 98.6919 19.6648 98.0238 18.9773C97.3629 18.2964 96.8157 17.5132 96.4035 16.6577C95.5793 14.9722 94.9686 13.1898 94.5858 11.3521C94.4043 10.4281 94.3261 9.4867 94.353 8.54536C94.3764 7.60209 94.554 6.66906 94.8787 5.78351C95.2114 4.90033 95.7066 4.08776 96.3387 3.38814C96.9724 2.69493 97.7105 2.1058 98.5264 1.64227C99.3391 1.18025 100.201 0.811931 101.096 0.54433C101.988 0.270135 102.906 0.0877503 103.835 0Z" fill="#101010" stroke="#101010" stroke-width="0.2"/>
</g>
<defs>
<clipPath id="clip0">
<rect width="109" height="45" fill="white"/>
</clipPath>
</defs>
</svg>
