<svg width="22" height="20" viewBox="0 0 22 20" fill="none" xmlns="http://www.w3.org/2000/svg">
<path d="M18.6016 12.248C18.9883 12.248 19.3398 12.002 19.4453 11.6152L21.0977 4.30273C21.2031 3.77539 20.8164 3.24805 20.2539 3.24805H6.47266L6.15625 1.70117C6.05078 1.31445 5.69922 0.998047 5.3125 0.998047H1.72656C1.23438 0.998047 0.882812 1.38477 0.882812 1.8418V2.4043C0.882812 2.89648 1.23438 3.24805 1.72656 3.24805H4.15234L6.64844 15.3418C6.01562 15.6934 5.59375 16.3613 5.66406 17.1699C5.69922 18.1543 6.50781 18.9629 7.52734 18.998C8.65234 19.0684 9.60156 18.1543 9.60156 17.0293C9.60156 16.502 9.35547 16.0098 9.00391 15.623H16.3516C16 16.0098 15.7539 16.5371 15.7891 17.0996C15.7891 18.1543 16.668 18.998 17.7227 18.998C18.8125 19.0332 19.7266 18.1543 19.7266 17.0293C19.7266 16.2559 19.2695 15.5879 18.6016 15.2715L18.7773 14.4277C18.918 13.9004 18.4961 13.373 17.9688 13.373H8.54688L8.30078 12.248H18.6016ZM15.0508 7.74805C15.4023 7.74805 15.6133 8.20508 15.332 8.48633L12.9766 10.8418C12.8008 11.0176 12.5547 11.0176 12.3789 10.8418L10.0234 8.48633C9.74219 8.20508 9.95312 7.74805 10.3047 7.74805H11.8516V5.63867C11.8516 5.42773 12.0273 5.2168 12.2734 5.2168H13.1172C13.3281 5.2168 13.5391 5.42773 13.5391 5.63867V7.74805H15.0508Z" fill="#C4C4C4"/>
</svg>
