<svg width="13" height="15" viewBox="0 0 13 15" fill="none" xmlns="http://www.w3.org/2000/svg">
<path d="M6.5 7.5C8.05273 7.5 9.3125 6.26953 9.3125 4.6875V4.21875H3.6875V4.6875C3.6875 6.26953 4.91797 7.5 6.5 7.5ZM8.72656 8.4375H8.49219C7.87695 8.73047 7.20312 8.90625 6.5 8.90625C5.76758 8.90625 5.09375 8.73047 4.47852 8.4375H4.24414C2.36914 8.4375 0.875 9.96094 0.875 11.8359V12.6562C0.875 13.4473 1.49023 14.0625 2.28125 14.0625H10.7188C11.4805 14.0625 12.125 13.4473 12.125 12.6562V11.8359C12.125 9.96094 10.6016 8.4375 8.72656 8.4375ZM9.3125 0.9375L7.90625 1.64062L6.5 0.9375L5.09375 1.64062L3.6875 0.9375V3.28125H9.3125V0.9375Z" fill="#91C1F8"/>
</svg>
